<svg xmlns="http://www.w3.org/2000/svg" xmlns:xlink="http://www.w3.org/1999/xlink" viewBox="0,0,256,256" width="100px" height="100px" fill-rule="nonzero"><g fill="none" fill-rule="nonzero" stroke="none" stroke-width="1" stroke-linecap="butt" stroke-linejoin="miter" stroke-miterlimit="10" stroke-dasharray="" stroke-dashoffset="0" font-family="none" font-weight="none" font-size="none" text-anchor="none" style="mix-blend-mode: normal"><g transform="scale(2.56,2.56)"><path d="M87.215,56.71c1.135,-2.155 1.785,-4.605 1.785,-7.21c0,-6.621 -4.159,-12.257 -10.001,-14.478c0,-0.007 0.001,-0.014 0.001,-0.022c0,-11.598 -9.402,-21 -21,-21c-9.784,0 -17.981,6.701 -20.313,15.757c-1.476,-0.485 -3.049,-0.757 -4.687,-0.757c-7.692,0 -14.023,5.793 -14.89,13.252c-5.204,1.101 -9.11,5.717 -9.11,11.248c0,6.351 5.149,11.5 11.5,11.5c0.177,0 0.352,-0.012 0.526,-0.022c-0.004,0.175 -0.026,0.346 -0.026,0.522c0,11.322 9.178,20.5 20.5,20.5c6.437,0 12.175,-2.972 15.934,-7.614c2.178,2.225 5.206,3.614 8.566,3.614c4.65,0 8.674,-2.65 10.666,-6.518c1.052,0.335 2.171,0.518 3.334,0.518c6.075,0 11,-4.925 11,-11c0,-3.311 -1.47,-6.273 -3.785,-8.29z" fill="#c7ede6"></path><path d="M65.625,18h-10c-0.276,0 -0.5,-0.224 -0.5,-0.5c0,-0.276 0.224,-0.5 0.5,-0.5h10c0.276,0 0.5,0.224 0.5,0.5c0,0.276 -0.224,0.5 -0.5,0.5z" fill="#ffffff"></path><path d="M69.625,18h-2c-0.276,0 -0.5,-0.224 -0.5,-0.5c0,-0.276 0.224,-0.5 0.5,-0.5h2c0.276,0 0.5,0.224 0.5,0.5c0,0.276 -0.224,0.5 -0.5,0.5z" fill="#ffffff"></path><path d="M74.625,20h-10c-0.276,0 -0.5,-0.224 -0.5,-0.5c0,-0.276 0.224,-0.5 0.5,-0.5h10c0.276,0 0.5,0.224 0.5,0.5c0,0.276 -0.223,0.5 -0.5,0.5z" fill="#ffffff"></path><path d="M62.625,20h-1c-0.276,0 -0.5,-0.224 -0.5,-0.5c0,-0.276 0.224,-0.5 0.5,-0.5h1c0.276,0 0.5,0.224 0.5,0.5c0,0.276 -0.224,0.5 -0.5,0.5z" fill="#ffffff"></path><path d="M59.5,20h-1.875c-0.276,0 -0.5,-0.224 -0.5,-0.5c0,-0.276 0.224,-0.5 0.5,-0.5h1.875c0.276,0 0.5,0.224 0.5,0.5c0,0.276 -0.224,0.5 -0.5,0.5z" fill="#ffffff"></path><path d="M68.625,16h-5c-0.276,0 -0.5,-0.224 -0.5,-0.5c0,-0.276 0.224,-0.5 0.5,-0.5h5c0.276,0 0.5,0.224 0.5,0.5c0,0.276 -0.223,0.5 -0.5,0.5z" fill="#ffffff"></path><path d="M65.625,22h-2c-0.276,0 -0.5,-0.224 -0.5,-0.5c0,-0.276 0.224,-0.5 0.5,-0.5h2c0.276,0 0.5,0.224 0.5,0.5c0,0.276 -0.224,0.5 -0.5,0.5z" fill="#ffffff"></path><path d="M35.53,81h-9.905c-0.276,0 -0.5,-0.224 -0.5,-0.5c0,-0.276 0.224,-0.5 0.5,-0.5h9.905c0.276,0 0.5,0.224 0.5,0.5c0,0.276 -0.223,0.5 -0.5,0.5z" fill="#ffffff"></path><path d="M38.625,81h-1c-0.276,0 -0.5,-0.224 -0.5,-0.5c0,-0.276 0.224,-0.5 0.5,-0.5h1c0.276,0 0.5,0.224 0.5,0.5c0,0.276 -0.223,0.5 -0.5,0.5z" fill="#ffffff"></path><path d="M43.616,83h-8.991c-0.276,0 -0.5,-0.224 -0.5,-0.5c0,-0.276 0.224,-0.5 0.5,-0.5h8.991c0.276,0 0.5,0.224 0.5,0.5c0,0.276 -0.224,0.5 -0.5,0.5z" fill="#ffffff"></path><path d="M32.625,83h-1c-0.276,0 -0.5,-0.224 -0.5,-0.5c0,-0.276 0.224,-0.5 0.5,-0.5h1c0.276,0 0.5,0.224 0.5,0.5c0,0.276 -0.223,0.5 -0.5,0.5z" fill="#ffffff"></path><path d="M29.625,83h-2c-0.276,0 -0.5,-0.224 -0.5,-0.5c0,-0.276 0.224,-0.5 0.5,-0.5h2c0.276,0 0.5,0.224 0.5,0.5c0,0.276 -0.223,0.5 -0.5,0.5z" fill="#ffffff"></path><path d="M35.625,85h-2c-0.276,0 -0.5,-0.224 -0.5,-0.5c0,-0.276 0.224,-0.5 0.5,-0.5h2c0.276,0 0.5,0.224 0.5,0.5c0,0.276 -0.224,0.5 -0.5,0.5z" fill="#ffffff"></path><path d="M38.625,76c-0.177,0 -0.823,0 -1,0c-0.276,0 -0.5,0.224 -0.5,0.5c0,0.276 0.224,0.5 0.5,0.5c0.177,0 0.823,0 1,0c0.276,0 0.5,-0.224 0.5,-0.5c0,-0.276 -0.224,-0.5 -0.5,-0.5z" fill="#ffffff"></path><path d="M38.625,78c-0.177,0 -4.823,0 -5,0c-0.276,0 -0.5,0.224 -0.5,0.5c0,0.276 0.224,0.5 0.5,0.5c0.177,0 4.823,0 5,0c0.276,0 0.5,-0.224 0.5,-0.5c0,-0.276 -0.224,-0.5 -0.5,-0.5z" fill="#ffffff"></path><path d="M43.625,80c-0.177,0 -2.823,0 -3,0c-0.276,0 -0.5,0.224 -0.5,0.5c0,0.276 0.224,0.5 0.5,0.5c0.177,0 2.823,0 3,0c0.276,0 0.5,-0.224 0.5,-0.5c0,-0.276 -0.224,-0.5 -0.5,-0.5z" fill="#ffffff"></path><path d="M19.143,46.219c0,0 -1.567,0 -3.5,0c-1.933,0 -3.5,-1.567 -3.5,-3.5c0,-1.781 1.335,-3.234 3.055,-3.455c-0.028,-0.179 -0.055,-0.358 -0.055,-0.545c0,-1.933 1.567,-3.5 3.5,-3.5c1.032,0 1.95,0.455 2.59,1.165c0.384,-1.808 1.987,-3.165 3.91,-3.165c2.209,0 4,1.791 4,4c0,0.191 -0.03,0.374 -0.056,0.558c0.428,-0.344 0.965,-0.558 1.556,-0.558c1.228,0 2.245,0.887 2.455,2.055c0.179,-0.028 0.358,-0.055 0.545,-0.055c1.933,0 3.5,1.567 3.5,3.5c0,1.933 -1.567,3.5 -3.5,3.5c-1.933,0 -7.5,0 -7.5,0v0.5h-7z" fill="#fdfcef"></path><path d="M17.393,41.719c0.138,0 0.25,-0.112 0.25,-0.25c0,-1.223 -0.995,-2.218 -2.218,-2.218c-0.034,0.009 -0.737,-0.001 -1.244,0.136c-0.133,0.036 -0.212,0.173 -0.176,0.306c0.036,0.134 0.173,0.213 0.306,0.176c0.444,-0.12 1.1,-0.12 1.113,-0.118c0.948,0 1.719,0.771 1.719,1.718c0,0.138 0.111,0.25 0.25,0.25z" fill="#472b29"></path><circle cx="24.143" cy="46.219" r="0.5" fill="#472b29"></circle><path d="M15.643,46.719h3.5c0.276,0 0.5,-0.224 0.5,-0.5c0,-0.276 -0.224,-0.5 -0.5,-0.5h-3.5c-1.654,0 -3,-1.346 -3,-3c0,-1.496 1.125,-2.768 2.618,-2.959c0.134,-0.018 0.255,-0.088 0.336,-0.196c0.081,-0.108 0.115,-0.244 0.094,-0.377c-0.024,-0.153 -0.049,-0.308 -0.049,-0.468c0,-1.654 1.346,-3 3,-3c0.85,0 1.638,0.355 2.219,1c0.125,0.139 0.321,0.198 0.5,0.148c0.182,-0.049 0.321,-0.195 0.36,-0.379c0.341,-1.604 1.779,-2.769 3.42,-2.769c1.93,0 3.5,1.57 3.5,3.5c0,0.143 -0.021,0.28 -0.041,0.418c-0.029,0.203 0.063,0.438 0.242,0.54c0.179,0.102 0.396,0.118 0.556,-0.01c0.365,-0.293 0.794,-0.448 1.243,-0.448c0.966,0 1.792,0.691 1.963,1.644c0.048,0.267 0.296,0.446 0.569,0.405c0.153,-0.024 0.308,-0.049 0.468,-0.049c1.654,0 3,1.346 3,3c0,1.654 -1.346,3 -3,3h-7.5c-0.276,0 -0.5,0.224 -0.5,0.5c0,0.276 0.224,0.5 0.5,0.5h7.5c2.206,0 4,-1.794 4,-4c0,-2.206 -1.794,-4 -4,-4c-0.059,0 -0.116,0.002 -0.174,0.006c-0.414,-1.186 -1.537,-2.006 -2.826,-2.006c-0.349,0 -0.689,0.061 -1.011,0.18c-0.165,-2.333 -2.115,-4.18 -4.489,-4.18c-1.831,0 -3.466,1.127 -4.153,2.774c-0.68,-0.499 -1.502,-0.774 -2.347,-0.774c-2.206,0 -4,1.794 -4,4c0,0.048 0.001,0.095 0.004,0.142c-1.743,0.448 -3.004,2.027 -3.004,3.858c0.002,2.206 1.796,4 4.002,4z" fill="#472b29"></path><path d="M21.143,45.719c0.159,0 0.841,0 1,0c0.276,0 0.5,0.224 0.5,0.5c0,0.276 -0.224,0.5 -0.5,0.5c-0.159,0 -0.841,0 -1,0c-0.276,0 -0.5,-0.224 -0.5,-0.5c0,-0.276 0.224,-0.5 0.5,-0.5z" fill="#472b29"></path><path d="M68.371,71.375h-28.5c-3.935,0 -7.125,-3.19 -7.125,-7.125v-28.5c0,-3.935 3.19,-7.125 7.125,-7.125h28.5c3.935,0 7.125,3.19 7.125,7.125v28.5c0,3.935 -3.19,7.125 -7.125,7.125z" fill="#ffffff"></path><path d="M68.371,72.075h-28.5c-4.314,0 -7.825,-3.511 -7.825,-7.825v-28.5c0,-4.314 3.511,-7.825 7.825,-7.825h28.5c4.314,0 7.825,3.511 7.825,7.825v28.5c0,4.314 -3.51,7.825 -7.825,7.825zM39.871,29.325c-3.543,0 -6.425,2.882 -6.425,6.425v28.5c0,3.543 2.882,6.425 6.425,6.425h28.5c3.543,0 6.425,-2.882 6.425,-6.425v-28.5c0,-3.543 -2.882,-6.425 -6.425,-6.425z" fill="#472b29"></path><path d="M76.563,75.501v0.5h3v-0.5c0,0 4.242,0 5.5,0c2.485,0 4.5,-2.015 4.5,-4.5c0,-2.333 -1.782,-4.229 -4.055,-4.455c0.022,-0.181 0.055,-0.358 0.055,-0.545c0,-2.485 -2.015,-4.5 -4.5,-4.5c-1.438,0 -2.703,0.686 -3.527,1.736c-0.14,-2.636 -2.302,-4.736 -4.973,-4.736c-2.761,0 -5,2.239 -5,5c0,0.446 0.077,0.87 0.187,1.282c-0.642,-0.777 -1.6,-1.282 -2.687,-1.282c-1.781,0 -3.234,1.335 -3.455,3.055c-0.181,-0.022 -0.358,-0.055 -0.545,-0.055c-2.485,0 -4.5,2.015 -4.5,4.5c0,2.485 2.015,4.5 4.5,4.5c2.485,0 9.5,0 9.5,0z" fill="#fdfcef"></path><path d="M72.563,58.001c-3.033,0 -5.5,2.467 -5.5,5.5c0,0.016 0,0.031 0,0.047c-0.602,-0.354 -1.29,-0.547 -2,-0.547c-1.831,0 -3.411,1.261 -3.858,3.005c-0.047,-0.003 -0.094,-0.005 -0.142,-0.005c-2.757,0 -5,2.243 -5,5c0,2.757 2.243,5 5,5h15.5c0.276,0 0.5,-0.224 0.5,-0.5c0,-0.276 -0.224,-0.5 -0.5,-0.5h-15.5c-2.206,0 -4,-1.794 -4,-4c0,-2.206 1.794,-4 4,-4c0.117,0 0.23,0.017 0.343,0.032l0.141,0.019c0.021,0.003 0.041,0.004 0.062,0.004c0.246,0 0.462,-0.185 0.495,-0.437c0.191,-1.493 1.463,-2.618 2.959,-2.618c0.885,0 1.723,0.401 2.301,1.1c0.098,0.118 0.241,0.182 0.386,0.182c0.078,0 0.156,-0.018 0.228,-0.056c0.209,-0.107 0.314,-0.346 0.254,-0.573c-0.116,-0.436 -0.17,-0.802 -0.17,-1.153c0,-2.481 2.019,-4.5 4.5,-4.5c2.381,0 4.347,1.872 4.474,4.263c0.011,0.208 0.15,0.387 0.349,0.45c0.05,0.016 0.101,0.024 0.152,0.024c0.15,0 0.296,-0.069 0.392,-0.192c0.771,-0.981 1.913,-1.544 3.133,-1.544c2.206,0 4,1.794 4,4c0,0.117 -0.017,0.23 -0.032,0.343l-0.019,0.141c-0.016,0.134 0.022,0.268 0.106,0.373c0.084,0.105 0.207,0.172 0.34,0.185c2.055,0.205 3.604,1.906 3.604,3.958c0,2.206 -1.794,4 -4,4h-5.5c-0.276,0 -0.5,0.224 -0.5,0.5c0,0.276 0.224,0.5 0.5,0.5h5.5c2.757,0 5,-2.243 5,-5c0,-2.397 -1.689,-4.413 -4.003,-4.877c0.002,-0.041 0.003,-0.082 0.003,-0.123c0,-2.757 -2.243,-5 -5,-5c-1.176,0 -2.293,0.416 -3.183,1.164c-0.596,-2.405 -2.76,-4.165 -5.315,-4.165z" fill="#472b29"></path><path d="M71.063,65.001c-1.403,0 -2.609,0.999 -2.913,2.341c-0.367,-0.222 -0.786,-0.341 -1.212,-0.341c-1.202,0 -2.198,0.897 -2.353,2.068c-0.203,-0.045 -0.396,-0.068 -0.585,-0.068c-1.529,0 -2.811,1.2 -2.918,2.732c-0.009,0.138 0.094,0.257 0.232,0.267c0.006,0 0.012,0 0.018,0c0.13,0 0.24,-0.101 0.249,-0.232c0.089,-1.271 1.151,-2.268 2.419,-2.268c0.229,0 0.47,0.042 0.738,0.127c0.022,0.007 0.045,0.01 0.067,0.01c0.055,0 0.11,-0.02 0.156,-0.054c0.064,-0.047 0.102,-0.129 0.102,-0.209c0,-1.034 0.841,-1.875 1.875,-1.875c0.447,0 0.885,0.168 1.231,0.473c0.047,0.041 0.106,0.063 0.165,0.063c0.032,0 0.063,-0.006 0.093,-0.019c0.088,-0.035 0.148,-0.117 0.155,-0.212c0.102,-1.292 1.191,-2.305 2.479,-2.305c0.208,0 0.425,0.034 0.682,0.107c0.023,0.007 0.047,0.01 0.07,0.01c0.109,0 0.207,-0.073 0.239,-0.182c0.038,-0.133 -0.039,-0.271 -0.172,-0.309c-0.3,-0.084 -0.561,-0.124 -0.817,-0.124z" fill="#472b29"></path><path d="M84.946,66.501c-1.326,0 -2.508,0.897 -2.874,2.182c-0.038,0.133 0.039,0.271 0.172,0.309c0.023,0.007 0.046,0.01 0.068,0.01c0.109,0 0.209,-0.072 0.24,-0.182c0.305,-1.071 1.289,-1.818 2.393,-1.818c0.117,0 0.23,0.014 0.342,0.029c0.012,0.002 0.023,0.003 0.035,0.003c0.121,0 0.229,-0.092 0.246,-0.217c0.019,-0.137 -0.077,-0.263 -0.214,-0.281c-0.133,-0.019 -0.268,-0.035 -0.408,-0.035z" fill="#472b29"></path><path d="M67.365,40.745c0,0 -1.38,-1.564 -2.207,-2.391c-0.828,-0.828 -1.839,-1.104 -3.495,-0.368l-2.759,-3.127h-4.783h-4.783l-2.759,3.127c-1.656,-0.736 -2.667,-0.46 -3.495,0.368c-0.828,0.828 -2.207,2.391 -2.207,2.391l1.104,1.656l-1.104,2.575l3.452,13.477c0.265,1.036 0.897,1.94 1.779,2.545l7.026,4.822c0.595,0.409 1.381,0.409 1.976,0l7.026,-4.822c0.881,-0.605 1.514,-1.509 1.779,-2.545l3.451,-13.477l-1.104,-2.575z" fill="#e85654"></path><path d="M43.82,37.806v18.663l-2.943,-11.493l1.104,-2.575l-1.104,-1.656c0,0 1.38,-1.564 2.207,-2.391c0.229,-0.228 0.471,-0.416 0.736,-0.548z" fill="#f5905f"></path><path d="M47.867,36.525v25.679l-1.759,-1.207c-0.883,-0.603 -1.516,-1.508 -1.781,-2.546l-0.508,-1.983v-18.662c0.699,-0.353 1.56,-0.353 2.759,0.18z" fill="#f3865d"></path><path d="M51.914,34.859v30.127l-4.047,-2.782v-25.679l1.472,-1.666z" fill="#f17d5b"></path><path d="M55.961,34.859v30.377l-0.85,0.585c-0.596,0.408 -1.383,0.408 -1.979,0l-1.218,-0.835v-30.127z" fill="#ef735a"></path><path d="M60.007,36.11v26.348l-4.046,2.778v-30.377h2.943z" fill="#ec6958"></path><path d="M64.054,37.662v20.245l-0.14,0.544c-0.265,1.037 -0.898,1.942 -1.781,2.546l-2.126,1.461v-26.348l1.656,1.876c0.997,-0.441 1.762,-0.519 2.391,-0.324z" fill="#ea6056"></path><path d="M66.262,42.401l1.104,2.575l-3.311,12.931v-20.245c0.416,0.121 0.776,0.364 1.104,0.692c0.828,0.828 2.207,2.391 2.207,2.391z" fill="#e85654"></path><path d="M63.882,46.416c0.627,-0.615 0.706,-1.597 0.187,-2.305l-3.142,-4.285c0,0 -2.575,0.736 -3.495,0.736c-1.288,0 -1.839,-0.736 -3.311,-0.736c-1.472,0 -2.023,0.736 -3.311,0.736c-0.92,0 -3.495,-0.736 -3.495,-0.736l-3.142,4.285c-0.519,0.708 -0.44,1.69 0.187,2.305l3.446,3.383c0.249,0.245 0.316,0.621 0.163,0.935c-0.272,0.556 -0.654,1.435 -0.654,1.969c0,1.104 0.92,2.207 2.023,2.207c1.38,0 4.231,-2.207 4.231,-3.127c0,-1.196 -3.311,-1.839 -3.311,-2.759c0,-1.104 1.472,-2.575 1.472,-3.311c0,-0.92 -4.783,-2.391 -4.783,-2.391c0,0 1.747,-0.552 3.127,-0.552c0.552,0 2.575,0.608 2.575,1.104c0,0.828 -0.46,3.587 -0.552,4.783c-0.057,0.739 1.288,0.736 2.023,0.736c0.736,0 2.08,0.004 2.023,-0.736c-0.092,-1.196 -0.552,-3.955 -0.552,-4.783c0,-0.495 2.023,-1.104 2.575,-1.104c1.38,0 3.127,0.552 3.127,0.552c0,0 -4.783,1.472 -4.783,2.391c0,0.736 1.472,2.207 1.472,3.311c0,0.92 -3.311,1.564 -3.311,2.759c0,0.92 2.851,3.127 4.231,3.127c1.104,0 2.023,-1.104 2.023,-2.207c0,-0.534 -0.383,-1.413 -0.654,-1.969c-0.153,-0.314 -0.086,-0.69 0.163,-0.935z" fill="#fdfcee"></path><g><path d="M57.445,57.375l0.746,-0.582c0.243,-0.19 0.202,-0.569 -0.076,-0.703l-3.271,-1.57c-0.457,-0.219 -0.989,-0.219 -1.446,0l-3.271,1.57c-0.278,0.134 -0.319,0.513 -0.076,0.703l3.428,2.674c0.377,0.294 0.906,0.294 1.284,0l0.736,-0.574" fill="#fdfcee"></path><path d="M54.121,59.813c-0.253,0 -0.507,-0.082 -0.719,-0.247l-3.428,-2.674c-0.148,-0.116 -0.225,-0.297 -0.205,-0.484c0.021,-0.188 0.134,-0.348 0.304,-0.429l3.271,-1.57c0.493,-0.239 1.061,-0.238 1.554,0l3.271,1.57c0.17,0.081 0.283,0.241 0.304,0.429c0.02,0.188 -0.057,0.368 -0.205,0.484l-0.746,0.582c-0.056,0.041 -0.134,0.032 -0.176,-0.021c-0.042,-0.055 -0.032,-0.133 0.021,-0.176l0.746,-0.582c0.08,-0.063 0.121,-0.159 0.11,-0.261c-0.011,-0.101 -0.071,-0.187 -0.162,-0.23l-3.271,-1.57c-0.426,-0.203 -0.913,-0.203 -1.339,0l-3.271,1.57c-0.091,0.044 -0.151,0.13 -0.162,0.23c-0.011,0.102 0.03,0.198 0.11,0.261l3.428,2.674c0.333,0.26 0.799,0.26 1.13,0l0.736,-0.574c0.055,-0.042 0.133,-0.033 0.176,0.021c0.042,0.055 0.032,0.133 -0.021,0.176l-0.736,0.574c-0.212,0.164 -0.466,0.247 -0.72,0.247z" fill="#472b29"></path></g><g><path d="M56.375,58.21l0.625,-0.488" fill="#fdfcee"></path><path d="M56.375,58.335c-0.037,0 -0.074,-0.017 -0.099,-0.048c-0.042,-0.055 -0.032,-0.133 0.021,-0.176l0.625,-0.487c0.055,-0.041 0.134,-0.033 0.176,0.021c0.042,0.054 0.032,0.133 -0.021,0.176l-0.625,0.487c-0.023,0.018 -0.05,0.027 -0.077,0.027z" fill="#472b29"></path></g><path d="M54.121,66.375c-0.396,0 -0.793,-0.116 -1.131,-0.349l-7.023,-4.822c-0.933,-0.638 -1.601,-1.593 -1.881,-2.69l-3.451,-13.476c-0.014,-0.054 -0.01,-0.11 0.013,-0.161l1.05,-2.45l-1.028,-1.543c-0.063,-0.095 -0.055,-0.219 0.021,-0.304c0.014,-0.016 1.395,-1.579 2.218,-2.403c0.263,-0.262 0.524,-0.456 0.801,-0.595c0.787,-0.396 1.679,-0.364 2.804,0.103l2.64,-2.99c0.048,-0.054 0.116,-0.085 0.188,-0.085h9.565c0.071,0 0.14,0.031 0.188,0.085l2.64,2.991c0.936,-0.388 1.724,-0.474 2.397,-0.262c0.427,0.124 0.823,0.371 1.206,0.753c0.824,0.824 2.204,2.388 2.218,2.403c0.075,0.085 0.083,0.209 0.021,0.304l-1.028,1.543l1.05,2.45c0.022,0.051 0.026,0.107 0.013,0.16l-3.451,13.478c-0.28,1.097 -0.948,2.052 -1.882,2.689l-7.021,4.822c-0.344,0.233 -0.74,0.349 -1.137,0.349zM41.141,44.996l3.43,13.395c0.25,0.979 0.847,1.832 1.679,2.401l7.024,4.822c0.508,0.349 1.19,0.348 1.696,0l7.022,-4.822c0.833,-0.569 1.43,-1.423 1.68,-2.401l3.43,-13.395l-1.069,-2.497c-0.033,-0.078 -0.025,-0.167 0.021,-0.237l0.997,-1.495c-0.36,-0.405 -1.402,-1.569 -2.069,-2.236c-0.322,-0.321 -0.648,-0.526 -0.997,-0.628c-0.6,-0.189 -1.325,-0.083 -2.22,0.313c-0.103,0.044 -0.217,0.019 -0.289,-0.063l-2.684,-3.042h-9.341l-2.685,3.042c-0.073,0.082 -0.191,0.107 -0.289,0.063c-1.058,-0.472 -1.867,-0.528 -2.544,-0.187c-0.229,0.115 -0.449,0.279 -0.673,0.502c-0.666,0.667 -1.709,1.831 -2.069,2.236l0.997,1.495c0.047,0.07 0.055,0.159 0.021,0.237z" fill="#472b29"></path><path d="M64.046,50c-0.01,0 -0.021,-0.001 -0.031,-0.004c-0.066,-0.018 -0.107,-0.085 -0.09,-0.152l0.512,-2c0.018,-0.066 0.076,-0.11 0.152,-0.09c0.066,0.018 0.107,0.085 0.09,0.152l-0.512,2c-0.015,0.057 -0.065,0.094 -0.121,0.094z" fill="#472b29"></path><path d="M55,63.596c-0.04,0 -0.079,-0.019 -0.104,-0.055c-0.039,-0.057 -0.024,-0.134 0.033,-0.174l6.005,-4.124c0.457,-0.313 0.784,-0.782 0.922,-1.322l0.852,-3.327c0.018,-0.066 0.077,-0.111 0.152,-0.09c0.066,0.018 0.107,0.085 0.09,0.152l-0.852,3.327c-0.152,0.599 -0.516,1.119 -1.023,1.467l-6.005,4.124c-0.021,0.015 -0.046,0.022 -0.07,0.022z" fill="#472b29"></path><path d="M63,54c-0.011,0 -0.021,-0.001 -0.032,-0.004c-0.066,-0.018 -0.106,-0.086 -0.089,-0.153l0.693,-2.625c0.018,-0.066 0.091,-0.106 0.153,-0.089c0.066,0.018 0.106,0.086 0.089,0.153l-0.693,2.625c-0.015,0.056 -0.065,0.093 -0.121,0.093z" fill="#472b29"></path><g><path d="M52.458,45.75c-0.022,0.164 -0.044,0.332 -0.067,0.5" fill="#fdfcee"></path><path d="M52.392,46.375c-0.005,0 -0.011,0 -0.017,-0.001c-0.068,-0.009 -0.116,-0.072 -0.107,-0.141l0.066,-0.5c0.01,-0.067 0.066,-0.117 0.141,-0.107c0.068,0.009 0.116,0.072 0.107,0.141l-0.066,0.5c-0.009,0.062 -0.063,0.108 -0.124,0.108z" fill="#472b29"></path></g><path d="M58.904,55.034c-1.385,0 -4.356,-2.219 -4.356,-3.252c0,-0.713 0.959,-1.203 1.886,-1.677c0.701,-0.358 1.426,-0.729 1.426,-1.082c0,-0.571 -0.439,-1.281 -0.828,-1.907c-0.346,-0.557 -0.644,-1.038 -0.644,-1.404c0,-0.854 3.181,-1.968 4.475,-2.385c-0.592,-0.16 -1.74,-0.434 -2.694,-0.434c-0.626,0 -2.45,0.63 -2.45,0.979c0,0.454 0.146,1.53 0.285,2.572c0.111,0.82 0.226,1.67 0.267,2.2c0.014,0.179 -0.039,0.334 -0.157,0.461c-0.376,0.406 -1.328,0.409 -1.966,0.409c-0.011,-0.001 -0.021,-0.001 -0.027,0c-0.66,0 -1.613,-0.003 -1.989,-0.409c-0.118,-0.127 -0.171,-0.282 -0.157,-0.461c0.028,-0.37 0.093,-0.89 0.152,-1.348c0.009,-0.068 0.075,-0.124 0.14,-0.108c0.069,0.009 0.117,0.071 0.108,0.14c-0.059,0.456 -0.123,0.971 -0.15,1.336c-0.009,0.108 0.021,0.197 0.091,0.271c0.303,0.327 1.264,0.329 1.787,0.329c0.006,0 0.011,0 0.019,0c0.546,0 1.507,-0.002 1.81,-0.328c0.069,-0.075 0.1,-0.164 0.091,-0.272c-0.04,-0.523 -0.153,-1.369 -0.264,-2.187c-0.142,-1.05 -0.288,-2.135 -0.288,-2.605c0,-0.646 2.203,-1.229 2.7,-1.229c1.383,0 3.093,0.536 3.165,0.559c0.052,0.017 0.087,0.065 0.087,0.12c0,0.055 -0.036,0.103 -0.088,0.118c-1.815,0.559 -4.694,1.669 -4.694,2.271c0,0.296 0.295,0.771 0.606,1.272c0.405,0.654 0.865,1.396 0.865,2.039c0,0.507 -0.724,0.876 -1.562,1.305c-0.82,0.419 -1.75,0.894 -1.75,1.454c0,0.815 2.77,3.002 4.106,3.002c0.993,0 1.897,-0.992 1.897,-2.082c0,-0.388 -0.228,-1.067 -0.642,-1.914c-0.177,-0.361 -0.101,-0.795 0.188,-1.079l3.446,-3.383c0.579,-0.567 0.654,-1.488 0.175,-2.142l-3.092,-4.216c-0.459,0.129 -2.602,0.718 -3.444,0.718c-0.646,0 -1.122,-0.182 -1.583,-0.358c-0.487,-0.186 -0.991,-0.378 -1.729,-0.378c-0.738,0 -1.241,0.192 -1.729,0.379c-0.461,0.176 -0.937,0.357 -1.582,0.357c-0.844,0 -2.986,-0.589 -3.445,-0.718l-3.092,4.216c-0.479,0.654 -0.404,1.574 0.175,2.142l3.446,3.383c0.288,0.284 0.364,0.718 0.188,1.079c-0.414,0.847 -0.642,1.526 -0.642,1.914c0,1.09 0.905,2.082 1.898,2.082c1.336,0 4.105,-2.187 4.105,-3.002c0,-0.561 -0.93,-1.035 -1.749,-1.454c-0.838,-0.429 -1.562,-0.798 -1.562,-1.305c0,-0.643 0.46,-1.385 0.865,-2.038c0.312,-0.503 0.605,-0.978 0.605,-1.273c0,-0.603 -2.879,-1.713 -4.694,-2.271c-0.052,-0.016 -0.088,-0.063 -0.088,-0.118c0,-0.055 0.035,-0.104 0.087,-0.12c0.072,-0.022 1.782,-0.559 3.165,-0.559c0.497,0 2.7,0.583 2.7,1.229c0,0.255 -0.041,0.697 -0.128,1.393c-0.009,0.068 -0.068,0.122 -0.14,0.108c-0.068,-0.009 -0.117,-0.071 -0.108,-0.14c0.085,-0.675 0.126,-1.12 0.126,-1.361c0,-0.35 -1.824,-0.979 -2.45,-0.979c-0.954,0 -2.103,0.273 -2.694,0.434c1.294,0.417 4.475,1.531 4.475,2.385c0,0.366 -0.298,0.848 -0.644,1.404c-0.388,0.626 -0.827,1.335 -0.827,1.907c0,0.354 0.725,0.724 1.425,1.082c0.927,0.474 1.886,0.964 1.886,1.677c0,1.033 -2.972,3.252 -4.355,3.252c-1.124,0 -2.148,-1.111 -2.148,-2.332c0,-0.544 0.362,-1.4 0.667,-2.023c0.129,-0.265 0.073,-0.583 -0.139,-0.792l-3.446,-3.383c-0.666,-0.652 -0.753,-1.714 -0.2,-2.468l3.143,-4.285c0.03,-0.042 0.089,-0.059 0.135,-0.046c0.025,0.007 2.569,0.731 3.461,0.731c0.599,0 1.033,-0.166 1.493,-0.342c0.508,-0.193 1.034,-0.395 1.817,-0.395c0.783,0 1.309,0.201 1.817,0.395c0.46,0.176 0.895,0.342 1.494,0.342c0.891,0 3.435,-0.725 3.46,-0.731c0.045,-0.013 0.104,0.004 0.135,0.046l3.143,4.285c0.553,0.754 0.467,1.814 -0.2,2.468l-3.446,3.383c-0.212,0.209 -0.268,0.527 -0.139,0.792c0.305,0.623 0.667,1.479 0.667,2.023c-0.001,1.221 -1.025,2.332 -2.149,2.332z" fill="#472b29"></path><path d="M72.796,50.375c-0.137,0 -0.248,-0.11 -0.25,-0.247l-0.046,-4c-0.002,-0.138 0.109,-0.251 0.247,-0.253c0.001,0 0.002,0 0.003,0c0.137,0 0.248,0.11 0.25,0.247l0.046,4c0.002,0.138 -0.109,0.251 -0.247,0.253c-0.001,0 -0.002,0 -0.003,0z" fill="#472b29"></path><path d="M72.796,45.125c-0.138,0 -0.25,-0.112 -0.25,-0.25v-5c0,-0.138 0.112,-0.25 0.25,-0.25c0.138,0 0.25,0.112 0.25,0.25v5c0,0.138 -0.112,0.25 -0.25,0.25z" fill="#472b29"></path><path d="M72.796,38.375c-0.138,0 -0.25,-0.112 -0.25,-0.25v-2.375c0,-2.302 -1.873,-4.175 -4.175,-4.175h-9.246c-0.138,0 -0.25,-0.112 -0.25,-0.25c0,-0.138 0.112,-0.25 0.25,-0.25h9.246c2.578,0 4.675,2.097 4.675,4.675v2.375c0,0.138 -0.112,0.25 -0.25,0.25z" fill="#472b29"></path><path d="M35.446,47.125c-0.138,0 -0.25,-0.112 -0.25,-0.25v-8c0,-0.138 0.112,-0.25 0.25,-0.25c0.138,0 0.25,0.112 0.25,0.25v8c0,0.138 -0.112,0.25 -0.25,0.25z" fill="#472b29"></path><path d="M44,68.925h-4.129c-2.578,0 -4.675,-2.097 -4.675,-4.675v-13c0,-0.138 0.112,-0.25 0.25,-0.25c0.138,0 0.25,0.112 0.25,0.25v13c0,2.302 1.873,4.175 4.175,4.175h4.129c0.138,0 0.25,0.112 0.25,0.25c0,0.138 -0.112,0.25 -0.25,0.25z" fill="#472b29"></path><path d="M47.25,68.925h-2.125c-0.138,0 -0.25,-0.112 -0.25,-0.25c0,-0.138 0.112,-0.25 0.25,-0.25h2.125c0.138,0 0.25,0.112 0.25,0.25c0,0.138 -0.112,0.25 -0.25,0.25z" fill="#472b29"></path></g></g></svg>